<svg class="california" height="1500" id="svgCalifornia" viewbox="0 0 500 500" width="1500" xmlns="http://www.w3.org/2000/svg">
   <title>
    California
   </title>
   <path d="M 28.22598,83.494 L 31.77798,84.612 L 34.56798,85.383 L 34.26098,85.896 L 33.83798,86.447 L 33.18398,86.51 L 32.26898,87.325 L 31.53898,90.701 L 31.62498,90.999 L 31.71098,91.828 L 31.65598,91.986 L 31.20598,92.508 L 30.95698,92.68 L 30.42998,92.526 L 30.05598,92.026 L 30.25498,91.359 L 29.19998,91.016 L 27.54198,90.53 L 27.70298,89.453 L 27.73898,88.718 L 27.75298,87.276 L 27.74898,87.154 L 27.72598,87.001 L 27.67598,86.834 L 27.89698,84.711 L 28.22598,83.494" data-info="&lt;div&gt;459 - Del Norte, CA&lt;/div&gt;" data-info2="&lt;div&gt;24 - Del Norte, CA&lt;/div&gt;" id="06015" style="font-size:12px;fill-rule:nonzero;stroke:#FFFFFF;stroke-opacity:1;stroke-width:0.1;stroke-miterlimit:4;stroke-dasharray:none;stroke-linecap:butt;marker-start:none;stroke-linejoin:bevel;fill:#66c2a4">
   </path>
   <path d="M 34.56798,85.383 L 37.20898,86.122 L 37.23198,86.127 L 37.92098,86.27 L 38.90398,86.627 L 39.30898,86.748 L 39.54798,86.816 L 42.67198,87.699 L 43.91098,88.006 L 45.04198,88.312 L 45.33498,88.407 L 45.84898,88.565 L 53.55198,90.859 L 53.30298,91.427 L 53.21398,91.738 L 52.72198,93.55 L 52.73598,93.59 L 52.78098,93.617 L 51.60898,97.971 L 50.76598,101.05 L 45.60598,99.616 L 42.93298,98.841 L 40.98598,98.318 L 41.21998,97.007 L 40.07998,96.304 L 38.05598,97.101 L 36.64498,98.562 L 36.73098,99.161 L 36.61398,99.369 L 36.39798,99.54 L 36.21298,99.513 L 35.45598,99.129 L 34.15798,97.759 L 33.44598,96.691 L 33.00398,96.263 L 32.54398,95.893 L 32.61598,93.374 L 32.43598,93.117 L 30.95698,92.68 L 31.20598,92.508 L 31.65598,91.986 L 31.71098,91.828 L 31.62498,90.999 L 31.53898,90.701 L 32.26898,87.325 L 33.18398,86.51 L 33.83798,86.447 L 34.26098,85.896 L 34.56798,85.383" data-info="&lt;div&gt;32 - Siskiyou, CA&lt;/div&gt;" data-info2="&lt;div&gt;9 - Siskiyou, CA&lt;/div&gt;" id="06093" style="font-size:12px;fill-rule:nonzero;stroke:#FFFFFF;stroke-opacity:1;stroke-width:0.1;stroke-miterlimit:4;stroke-dasharray:none;stroke-linecap:butt;marker-start:none;stroke-linejoin:bevel;fill:#2ca25f">
   </path>
   <path d="M 79.89998,211.843 L 86.38198,213.199 L 91.69998,214.241 L 93.07898,214.479 L 95.21898,214.907 L 94.13798,215.174 L 93.50298,219.086 L 93.51098,219.108 L 93.73598,219.707 L 94.23298,220.055 L 94.40798,220.132 L 95.34598,220.289 L 95.37798,220.325 L 95.40898,220.357 L 95.72898,221.104 L 95.62498,221.952 L 95.52998,222.281 L 95.52998,222.286 L 95.06198,222.944 L 93.56598,223.872 L 92.43398,223.787 L 92.37098,223.782 L 84.40298,222.836 L 84.24498,222.817 L 83.33898,222.709 L 79.97198,222.308 L 78.53898,222.141 L 77.48398,222.019 L 77.97098,219.888 L 78.98898,216.301 L 79.30498,214.826 L 79.89998,211.843" data-info="&lt;div&gt;18 - Imperial, CA&lt;/div&gt;" data-info2="&lt;div&gt;6 - Imperial, CA&lt;/div&gt;" id="06025" style="font-size:12px;fill-rule:nonzero;stroke:#FFFFFF;stroke-opacity:1;stroke-width:0.1;stroke-miterlimit:4;stroke-dasharray:none;stroke-linecap:butt;marker-start:none;stroke-linejoin:bevel;fill:#2ca25f">
   </path>
   <path d="M 98.84798,207.088 L 97.87898,208.458 L 97.57698,208.981 L 97.30198,209.968 L 97.24298,210.387 L 96.93698,211.915 L 96.51698,213.375 L 95.21898,214.907 L 93.07898,214.479 L 91.69998,214.241 L 86.38198,213.199 L 79.89998,211.843 L 77.65098,211.333 L 74.32898,210.612 L 72.03998,210.112 L 67.82098,209.099 L 67.87098,208.882 L 66.74798,207.881 L 65.23398,207.534 L 65.31098,207.164 L 66.68998,205.817 L 66.17598,205.104 L 65.57698,204.879 L 65.26498,204.041 L 64.59398,202.516 L 64.94598,201.878 L 66.26598,200.737 L 67.75798,201.075 L 68.16398,201.17 L 68.25398,201.386 L 69.63298,201.9 L 72.70698,202.584 L 74.05398,202.635 L 76.67298,203.095 L 84.26298,204.699 L 89.55398,205.821 L 90.29398,205.578 L 91.65498,205.645 L 98.84798,207.088" data-info="&lt;div&gt;61 - Riverside, CA&lt;/div&gt;" data-info2="&lt;div&gt;12 - Riverside, CA&lt;/div&gt;" id="06065" style="font-size:12px;fill-rule:nonzero;stroke:#FFFFFF;stroke-opacity:1;stroke-width:0.1;stroke-miterlimit:4;stroke-dasharray:none;stroke-linecap:butt;marker-start:none;stroke-linejoin:bevel;fill:#66c2a4">
   </path>
   <path d="M 65.23398,207.534 L 66.74798,207.881 L 67.87098,208.882 L 67.82098,209.099 L 72.03998,210.112 L 74.32898,210.612 L 77.65098,211.333 L 79.89998,211.843 L 79.30498,214.826 L 78.98898,216.301 L 77.97098,219.888 L 77.48398,222.019 L 76.47498,221.897 L 74.41998,221.65 L 72.32798,221.407 L 69.37598,221.059 L 66.54098,220.713 L 66.47798,220.708 L 65.98698,218.558 L 66.18498,215.372 L 66.18498,215.264 L 66.18998,215.264 L 66.19798,214.569 L 66.20298,214.299 L 66.07698,213.195 L 66.02298,212.804 L 65.81598,212.189 L 65.79698,212.136 L 65.21598,210.671 L 65.04498,210.261 L 65.01298,210.197 L 64.77898,209.702 L 64.43198,209.202 L 64.21998,208.973 L 63.98998,208.818 L 65.23398,207.534" data-info="&lt;div&gt;430 - San Diego, CA&lt;/div&gt;" data-info2="&lt;div&gt;23 - San Diego, CA&lt;/div&gt;" id="06073" style="font-size:12px;fill-rule:nonzero;stroke:#FFFFFF;stroke-opacity:1;stroke-width:0.1;stroke-miterlimit:4;stroke-dasharray:none;stroke-linecap:butt;marker-start:none;stroke-linejoin:bevel;fill:#66c2a4">
   </path>
   <path d="M 63.67898,201.301 L 64.59398,202.516 L 65.26498,204.041 L 65.57698,204.879 L 66.17598,205.104 L 66.68998,205.817 L 65.31098,207.164 L 65.23398,207.534 L 63.98998,208.818 L 63.92198,208.544 L 63.74198,208.179 L 63.62998,208.016 L 61.65098,205.533 L 60.05998,203.586 L 59.67198,203.107 L 59.94698,202.621 L 60.52398,201.895 L 61.65998,200.918 L 62.14198,200.949 L 62.26398,200.976 L 63.67898,201.301" data-info="&lt;div&gt;2675 - Orange, CA&lt;/div&gt;" data-info2="&lt;div&gt;53 - Orange, CA&lt;/div&gt;" id="06059" style="font-size:12px;fill-rule:nonzero;stroke:#FFFFFF;stroke-opacity:1;stroke-width:0.1;stroke-miterlimit:4;stroke-dasharray:none;stroke-linecap:butt;marker-start:none;stroke-linejoin:bevel;fill:#99d8c9">
   </path>
   <path d="M 54.34898,214.1 L 53.54698,214.069 L 53.03798,213.442 L 52.96998,213.334 L 52.72198,212.545 L 52.49698,211.135 L 52.78098,211.23 L 54.25898,213.807 L 54.38098,214.069 L 54.34898,214.1M 53.80398,205.321 L 53.75898,205.288 L 53.74998,205.195 L 53.75898,205.177 L 53.80798,205.19 L 54.35898,205.375 L 54.97598,205.871 L 55.47598,206.272 L 55.85498,206.592 L 56.34198,207.601 L 56.38198,207.705 L 56.40898,207.921 L 56.35998,208.038 L 56.21098,208.125 L 56.20198,208.129 L 56.11598,208.129 L 54.81798,207.516 L 54.73198,207.439 L 53.80398,205.321M 67.45198,190.511 L 66.76598,193.485 L 66.44698,195.203 L 66.20698,196.663 L 66.11198,197.294 L 65.41898,198.794 L 64.81998,199.795 L 64.58098,200.192 L 63.83198,200.556 L 63.56198,200.886 L 63.54398,200.976 L 63.59298,201.179 L 63.67898,201.301 L 62.26398,200.976 L 62.14198,200.949 L 61.65998,200.918 L 60.52398,201.895 L 59.94698,202.621 L 59.67198,203.107 L 58.86998,203.216 L 58.02698,203.198 L 57.63898,203.045 L 57.44598,202.936 L 56.69298,202.45 L 56.55798,202.338 L 56.47698,201.883 L 56.55298,201.802 L 56.79698,201.621 L 56.92298,201.594 L 56.98598,201.464 L 57.05298,201.139 L 56.97298,200.544 L 56.92298,200.255 L 56.89598,200.093 L 56.83798,199.759 L 56.73398,199.353 L 56.58898,198.962 L 56.57598,198.934 L 56.55798,198.893 L 56.55298,198.885 L 56.44098,198.664 L 56.41798,198.633 L 56.33298,198.511 L 56.30498,198.471 L 56.27398,198.443 L 56.09298,198.272 L 55.83198,198.169 L 54.79998,197.952 L 53.98898,197.844 L 53.56098,197.88 L 51.96498,197.172 L 52.09998,196.811 L 53.12798,196.365 L 53.95698,196.018 L 55.20098,196.325 L 55.83198,195.319 L 55.89998,194.847 L 54.92198,187.946 L 54.87698,187.572 L 67.45198,190.511" data-info="&lt;div&gt;1357 - Los Angeles, CA&lt;/div&gt;" data-info2="&lt;div&gt;36 - Los Angeles, CA&lt;/div&gt;" id="06037" style="font-size:12px;fill-rule:nonzero;stroke:#FFFFFF;stroke-opacity:1;stroke-width:0.1;stroke-miterlimit:4;stroke-dasharray:none;stroke-linecap:butt;marker-start:none;stroke-linejoin:bevel;fill:#99d8c9">
   </path>
   <path d="M 49.54498,185.13 L 50.13998,185.346 L 51.16298,185.823 L 51.30298,186.157 L 51.35198,186.508 L 53.95298,187.707 L 54.92198,187.946 L 55.89998,194.847 L 55.83198,195.319 L 55.20098,196.325 L 53.95698,196.018 L 53.12798,196.365 L 52.09998,196.811 L 51.96498,197.172 L 50.54998,196.104 L 48.99498,193.399 L 47.93098,192.029 L 47.68298,191.714 L 47.55198,191.655 L 47.84998,191.448 L 47.93598,191.372 L 48.13398,190.74 L 49.54498,185.13" data-info="&lt;div&gt;939 - Ventura, CA&lt;/div&gt;" data-info2="&lt;div&gt;30 - Ventura, CA&lt;/div&gt;" id="06111" style="font-size:12px;fill-rule:nonzero;stroke:#FFFFFF;stroke-opacity:1;stroke-width:0.1;stroke-miterlimit:4;stroke-dasharray:none;stroke-linecap:butt;marker-start:none;stroke-linejoin:bevel;fill:#99d8c9">
   </path>
   <path d="M 38.38098,194.347 L 40.26498,194.499 L 41.10798,195.27 L 41.07998,195.698 L 41.07198,195.779 L 41.02698,195.793 L 39.48898,195.973 L 39.34998,195.981 L 38.93998,195.563 L 38.86298,195.428 L 38.38098,194.347M 43.64498,194.936 L 44.04198,195.216 L 45.08798,195.563 L 45.12398,195.541 L 45.14098,195.531 L 45.16798,195.518 L 45.20898,195.496 L 45.26298,195.464 L 45.29498,195.451 L 45.57898,195.469 L 45.92098,195.722 L 45.99298,195.829 L 45.98898,195.834 L 45.98498,195.843 L 45.97498,195.851 L 45.62798,196.122 L 45.52898,196.203 L 45.45698,196.213 L 43.68598,196.244 L 43.30198,196.153 L 42.92798,196.005 L 42.92398,196.005 L 42.78398,195.936 L 42.46798,195.789 L 42.18498,195.581 L 42.16198,195.505 L 41.95498,194.333 L 42.02698,194.242 L 42.08998,194.261 L 42.64498,194.481 L 43.64498,194.936M 37.51098,181.037 L 39.11998,181.212 L 39.69298,181.434 L 40.22398,181.979 L 40.92298,181.862 L 41.59898,181.483 L 43.68098,180.883 L 43.87498,181.113 L 44.46598,181.667 L 46.29098,183.132 L 48.57998,184.934 L 49.03998,185.052 L 49.23398,185.052 L 49.54498,185.13 L 48.13398,190.74 L 47.93598,191.372 L 47.84998,191.448 L 47.55198,191.655 L 46.79998,190.966 L 46.23198,190.719 L 45.65498,190.637 L 45.49798,190.64 L 45.47498,190.64 L 44.85798,190.61 L 43.55898,190.2 L 43.11298,189.749 L 42.35098,189.199 L 42.04498,189.078 L 41.25198,188.784 L 40.58898,188.608 L 39.81798,188.446 L 38.93498,188.334 L 37.88498,188.153 L 36.53298,186.387 L 36.61798,185.363 L 37.28098,181.961 L 37.51098,181.037" data-info="&lt;div&gt;1091 - Santa Barbara, CA&lt;/div&gt;" data-info2="&lt;div&gt;32 - Santa Barbara, CA&lt;/div&gt;" id="06083" style="font-size:12px;fill-rule:nonzero;stroke:#FFFFFF;stroke-opacity:1;stroke-width:0.1;stroke-miterlimit:4;stroke-dasharray:none;stroke-linecap:butt;marker-start:none;stroke-linejoin:bevel;fill:#99d8c9">
   </path>
   <path d="M 33.24298,168.853 L 44.59198,171.96 L 44.78998,172.014 L 44.22198,174.213 L 45.33098,175.862 L 46.53398,178.337 L 46.97098,179.626 L 48.09298,179.924 L 49.29698,181.339 L 49.79298,182.845 L 49.23398,185.052 L 49.03998,185.052 L 48.57998,184.934 L 46.29098,183.132 L 44.46598,181.667 L 43.87498,181.113 L 43.68098,180.883 L 41.59898,181.483 L 40.92298,181.862 L 40.22398,181.979 L 39.69298,181.434 L 39.11998,181.212 L 37.51098,181.037 L 37.68198,180.725 L 37.69598,180.703 L 37.85798,180.343 L 37.98898,179.996 L 38.05098,179.783 L 38.09698,179.568 L 38.10998,179.509 L 38.11498,179.485 L 38.13698,179.198 L 38.13698,179.184 L 38.10598,178.977 L 38.06098,178.854 L 37.96698,178.756 L 37.65498,178.436 L 37.60998,178.395 L 37.51998,178.333 L 36.58698,175.791 L 34.86098,172.608 L 33.72498,170.85 L 33.54898,170.666 L 33.44598,170.54 L 33.28298,169.968 L 33.24298,168.853" data-info="&lt;div&gt;1145 - San Luis Obispo, CA&lt;/div&gt;" data-info2="&lt;div&gt;34 - San Luis Obispo, CA&lt;/div&gt;" id="06079" style="font-size:12px;fill-rule:nonzero;stroke:#FFFFFF;stroke-opacity:1;stroke-width:0.1;stroke-miterlimit:4;stroke-dasharray:none;stroke-linecap:butt;marker-start:none;stroke-linejoin:bevel;fill:#99d8c9">
   </path>
   <path d="M 51.39698,173.704 L 56.28698,174.916 L 61.82598,176.277 L 66.24298,177.309 L 66.83898,177.48 L 70.65598,178.265 L 70.23698,179.333 L 70.13798,179.702 L 70.00298,181.221 L 67.81198,190.6 L 67.45198,190.511 L 54.87698,187.572 L 54.92198,187.946 L 53.95298,187.707 L 51.35198,186.508 L 51.30298,186.157 L 51.16298,185.823 L 50.13998,185.346 L 49.54498,185.13 L 49.23398,185.052 L 49.79298,182.845 L 49.29698,181.339 L 48.09298,179.924 L 46.97098,179.626 L 46.53398,178.337 L 45.33098,175.862 L 44.22198,174.213 L 44.78998,172.014 L 51.39698,173.704" data-info="&lt;div&gt;52 - Kern, CA&lt;/div&gt;" data-info2="&lt;div&gt;11 - Kern, CA&lt;/div&gt;" id="06029" style="font-size:12px;fill-rule:nonzero;stroke:#FFFFFF;stroke-opacity:1;stroke-width:0.1;stroke-miterlimit:4;stroke-dasharray:none;stroke-linecap:butt;marker-start:none;stroke-linejoin:bevel;fill:#2ca25f">
   </path>
   <path d="M 70.65598,178.265 L 73.25698,178.891 L 89.89198,182.568 L 90.83898,182.564 L 92.90698,185.67 L 93.61998,186.733 L 93.88498,187.126 L 97.70798,192.846 L 99.11798,194.945 L 98.79398,196.379 L 98.77598,196.559 L 98.78498,196.627 L 99.35298,198.105 L 100.06998,199.231 L 100.10598,199.75 L 100.77198,202.554 L 101.42998,203.343 L 102.00298,203.981 L 102.49898,204.848 L 102.46298,205.407 L 102.43998,205.425 L 101.08798,206.205 L 100.17698,206.579 L 98.84798,207.088 L 91.65498,205.645 L 90.29398,205.578 L 89.55398,205.821 L 84.26298,204.699 L 76.67298,203.095 L 74.05398,202.635 L 72.70698,202.584 L 69.63298,201.9 L 68.25398,201.386 L 68.16398,201.17 L 67.75798,201.075 L 66.26598,200.737 L 64.94598,201.878 L 64.59398,202.516 L 63.67898,201.301 L 63.59298,201.179 L 63.54398,200.976 L 63.56198,200.886 L 63.83198,200.556 L 64.58098,200.192 L 64.81998,199.795 L 65.41898,198.794 L 66.11198,197.294 L 66.20698,196.663 L 66.44698,195.203 L 66.76598,193.485 L 67.45198,190.511 L 67.81198,190.6 L 70.00298,181.221 L 70.13798,179.702 L 70.23698,179.333 L 70.65598,178.265" data-info="&lt;div&gt;2053 - San Bernardino, CA&lt;/div&gt;" data-info2="&lt;div&gt;47 - San Bernardino, CA&lt;/div&gt;" id="06071" style="font-size:12px;fill-rule:nonzero;stroke:#FFFFFF;stroke-opacity:1;stroke-width:0.1;stroke-miterlimit:4;stroke-dasharray:none;stroke-linecap:butt;marker-start:none;stroke-linejoin:bevel;fill:#99d8c9">
   </path>
   <path d="M 64.25098,154.494 L 73.57198,156.699 L 78.75598,164.482 L 78.94898,164.77 L 80.05298,166.411 L 80.69798,167.389 L 84.10098,172.482 L 86.85898,176.624 L 87.21498,177.156 L 88.69398,179.373 L 88.81098,179.545 L 90.83898,182.564 L 89.89198,182.568 L 73.25698,178.891 L 70.65598,178.265 L 66.83898,177.48 L 67.32998,176.408 L 67.50098,175.804 L 67.45598,174.952 L 67.16798,170.756 L 66.41498,166.487 L 66.17198,164.563 L 66.46498,163.293 L 66.54998,162.599 L 66.52298,162.111 L 66.35598,160.53 L 66.22498,160.263 L 65.46398,159.439 L 65.26498,159.421 L 64.48598,158.871 L 64.45398,158.84 L 64.36898,158.65 L 63.86398,156.112 L 63.89098,155.329 L 64.25098,154.494" data-info="&lt;div&gt;635 - Inyo, CA&lt;/div&gt;" data-info2="&lt;div&gt;27 - Inyo, CA&lt;/div&gt;" id="06027" style="font-size:12px;fill-rule:nonzero;stroke:#FFFFFF;stroke-opacity:1;stroke-width:0.1;stroke-miterlimit:4;stroke-dasharray:none;stroke-linecap:butt;marker-start:none;stroke-linejoin:bevel;fill:#66c2a4">
   </path>
   <path d="M 66.17198,164.563 L 66.41498,166.487 L 67.16798,170.756 L 67.45598,174.952 L 67.50098,175.804 L 67.32998,176.408 L 66.83898,177.48 L 66.24298,177.309 L 61.82598,176.277 L 56.28698,174.916 L 51.39698,173.704 L 52.46598,169.535 L 52.96598,167.853 L 53.29498,167.764 L 53.55598,167.826 L 53.97498,166.164 L 53.71798,164.92 L 53.27198,164.807 L 54.61498,163.991 L 56.49498,163.319 L 57.78398,163.662 L 59.67198,164.153 L 59.96098,163.094 L 64.39098,164.136 L 66.17198,164.563" data-info="&lt;div&gt;2350 - Tulare, CA&lt;/div&gt;" data-info2="&lt;div&gt;50 - Tulare, CA&lt;/div&gt;" id="06107" style="font-size:12px;fill-rule:nonzero;stroke:#FFFFFF;stroke-opacity:1;stroke-width:0.1;stroke-miterlimit:4;stroke-dasharray:none;stroke-linecap:butt;marker-start:none;stroke-linejoin:bevel;fill:#99d8c9">
   </path>
   <path d="M 53.27198,164.807 L 53.71798,164.92 L 53.97498,166.164 L 53.55598,167.826 L 53.29498,167.764 L 52.96598,167.853 L 52.46598,169.535 L 51.39698,173.704 L 44.78998,172.014 L 44.59198,171.96 L 43.96498,170.216 L 48.42698,167.691 L 49.12598,164.929 L 50.66298,165.307 L 52.11398,165.456 L 53.27198,164.807" data-info="&lt;div&gt;1711 - Kings, CA&lt;/div&gt;" data-info2="&lt;div&gt;42 - Kings, CA&lt;/div&gt;" id="06031" style="font-size:12px;fill-rule:nonzero;stroke:#FFFFFF;stroke-opacity:1;stroke-width:0.1;stroke-miterlimit:4;stroke-dasharray:none;stroke-linecap:butt;marker-start:none;stroke-linejoin:bevel;fill:#99d8c9">
   </path>
   <path d="M 60.24898,149.807 L 60.99698,150.01 L 61.62898,150.213 L 61.76798,150.38 L 62.07898,151.002 L 62.19698,152.345 L 59.04998,154.282 L 58.60398,154.575 L 58.41498,154.761 L 58.29298,155 L 58.20698,155.576 L 58.19798,155.798 L 58.17598,155.883 L 57.96898,156.365 L 57.81998,156.527 L 57.53598,156.78 L 57.22898,156.95 L 55.76398,156.856 L 55.33698,156.924 L 53.69598,157.947 L 53.25398,158.24 L 53.15098,158.325 L 52.44298,159.114 L 52.27198,159.398 L 52.01498,159.65 L 51.97898,159.66 L 47.64698,159.52 L 47.02998,159.403 L 46.31798,158.825 L 45.92998,158.195 L 45.82598,157.951 L 45.77698,157.789 L 45.74098,157.547 L 45.45698,155.333 L 46.27698,154.846 L 48.23298,154.647 L 49.76098,154.851 L 50.75798,154.851 L 54.37598,152.642 L 55.46698,152.908 L 56.36398,152.105 L 56.58898,151.286 L 59.97898,149.221 L 60.24898,149.807" data-info="&lt;div&gt;1118 - Madera, CA&lt;/div&gt;" data-info2="&lt;div&gt;33 - Madera, CA&lt;/div&gt;" id="06039" style="font-size:12px;fill-rule:nonzero;stroke:#FFFFFF;stroke-opacity:1;stroke-width:0.1;stroke-miterlimit:4;stroke-dasharray:none;stroke-linecap:butt;marker-start:none;stroke-linejoin:bevel;fill:#99d8c9">
   </path>
   <path d="M 64.25098,154.494 L 63.89098,155.329 L 63.86398,156.112 L 64.36898,158.65 L 64.45398,158.84 L 64.48598,158.871 L 65.26498,159.421 L 65.46398,159.439 L 66.22498,160.263 L 66.35598,160.53 L 66.52298,162.111 L 66.54998,162.599 L 66.46498,163.293 L 66.17198,164.563 L 64.39098,164.136 L 59.96098,163.094 L 59.67198,164.153 L 57.78398,163.662 L 56.49498,163.319 L 54.61498,163.991 L 53.27198,164.807 L 52.11398,165.456 L 50.66298,165.307 L 49.12598,164.929 L 48.42698,167.691 L 43.96498,170.216 L 41.92298,167.719 L 41.28798,166.804 L 41.24298,166.076 L 41.51798,164.73 L 42.03098,164.176 L 43.00098,162.156 L 40.71598,158.155 L 45.45698,155.333 L 45.74098,157.547 L 45.77698,157.789 L 45.82598,157.951 L 45.92998,158.195 L 46.31798,158.825 L 47.02998,159.403 L 47.64698,159.52 L 51.97898,159.66 L 52.01498,159.65 L 52.27198,159.398 L 52.44298,159.114 L 53.15098,158.325 L 53.25398,158.24 L 53.69598,157.947 L 55.33698,156.924 L 55.76398,156.856 L 57.22898,156.95 L 57.53598,156.78 L 57.81998,156.527 L 57.96898,156.365 L 58.17598,155.883 L 58.19798,155.798 L 58.20698,155.576 L 58.29298,155 L 58.41498,154.761 L 58.60398,154.575 L 59.04998,154.282 L 62.19698,152.345 L 64.25098,154.494" data-info="&lt;div&gt;73 - Fresno, CA&lt;/div&gt;" data-info2="&lt;div&gt;13 - Fresno, CA&lt;/div&gt;" id="06019" style="font-size:12px;fill-rule:nonzero;stroke:#FFFFFF;stroke-opacity:1;stroke-width:0.1;stroke-miterlimit:4;stroke-dasharray:none;stroke-linecap:butt;marker-start:none;stroke-linejoin:bevel;fill:#66c2a4">
   </path>
   <path d="M 34.06798,154.273 L 34.01298,154.535 L 34.11698,154.932 L 34.94698,156.31 L 35.88798,158.005 L 36.73998,160.317 L 38.09698,163.054 L 38.71398,163.807 L 40.61198,165.406 L 40.88598,165.514 L 40.94098,165.51 L 41.01698,165.465 L 41.51798,164.73 L 41.24298,166.076 L 41.28798,166.804 L 41.92298,167.719 L 43.96498,170.216 L 44.59198,171.96 L 33.24298,168.853 L 32.92298,168.386 L 32.39098,167.403 L 32.40898,166.925 L 32.42198,166.695 L 32.44498,166.276 L 32.38598,165.906 L 32.37698,165.852 L 31.18298,163.293 L 30.91698,162.824 L 30.40398,162.246 L 30.25898,162.116 L 30.25498,162.116 L 30.15498,162.102 L 30.09198,162.066 L 29.99298,161.941 L 29.92998,161.801 L 29.67698,161.215 L 29.58698,161.003 L 29.57798,160.8 L 29.90798,157.519 L 30.62898,157.263 L 30.65098,157.271 L 30.81398,157.275 L 30.93898,157.221 L 31.18798,157.037 L 31.34098,156.879 L 31.45298,156.744 L 31.64698,156.45 L 31.83198,156.082 L 32.32798,155.009 L 32.33698,154.86 L 32.27898,154.391 L 32.27398,154.359 L 34.06798,154.273" data-info="&lt;div&gt;1761 - Monterey, CA&lt;/div&gt;" data-info2="&lt;div&gt;43 - Monterey, CA&lt;/div&gt;" id="06053" style="font-size:12px;fill-rule:nonzero;stroke:#FFFFFF;stroke-opacity:1;stroke-width:0.1;stroke-miterlimit:4;stroke-dasharray:none;stroke-linecap:butt;marker-start:none;stroke-linejoin:bevel;fill:#99d8c9">
   </path>
   <path d="M 34.06798,154.273 L 34.70698,154.364 L 35.60498,153.859 L 36.52398,154.054 L 38.52898,154.593 L 38.32198,154.809 L 38.24998,154.909 L 38.22298,154.981 L 38.29098,155.166 L 38.83598,156.351 L 40.60698,157.97 L 40.71598,158.155 L 43.00098,162.156 L 42.03098,164.176 L 41.51798,164.73 L 41.01698,165.465 L 40.94098,165.51 L 40.88598,165.514 L 40.61198,165.406 L 38.71398,163.807 L 38.09698,163.054 L 36.73998,160.317 L 35.88798,158.005 L 34.94698,156.31 L 34.11698,154.932 L 34.01298,154.535 L 34.06798,154.273" data-info="&lt;div&gt;720 - San Benito, CA&lt;/div&gt;" data-info2="&lt;div&gt;28 - San Benito, CA&lt;/div&gt;" id="06069" style="font-size:12px;fill-rule:nonzero;stroke:#FFFFFF;stroke-opacity:1;stroke-width:0.1;stroke-miterlimit:4;stroke-dasharray:none;stroke-linecap:butt;marker-start:none;stroke-linejoin:bevel;fill:#66c2a4">
   </path>
   <path d="M 48.92698,148.329 L 49.41398,150.812 L 49.40998,151.002 L 49.40098,151.038 L 49.35598,151.083 L 49.76598,153.53 L 50.03098,153.907 L 50.75798,154.851 L 49.76098,154.851 L 48.23298,154.647 L 46.27698,154.846 L 45.45698,155.333 L 40.71598,158.155 L 40.60698,157.97 L 38.83598,156.351 L 38.29098,155.166 L 38.22298,154.981 L 38.24998,154.909 L 38.32198,154.809 L 38.52898,154.593 L 38.38998,154.449 L 38.31298,154.279 L 38.30398,154.206 L 38.44798,153.701 L 38.70498,153.584 L 38.91698,153.251 L 39.06098,152.556 L 39.00698,152.386 L 42.30598,150.438 L 42.32398,150.015 L 42.26598,149.888 L 42.18998,149.843 L 43.65498,149.41 L 48.92698,148.329" data-info="&lt;div&gt;1 - Merced, CA&lt;/div&gt;" data-info2="&lt;div&gt;1 - Merced, CA&lt;/div&gt;" id="06047" style="font-size:12px;fill-rule:nonzero;stroke:#FFFFFF;stroke-opacity:1;stroke-width:0.1;stroke-miterlimit:4;stroke-dasharray:none;stroke-linecap:butt;marker-start:none;stroke-linejoin:bevel;fill:#006d2c">
   </path>
   <path d="M 30.43898,147.969 L 30.43498,148.112 L 30.45698,148.184 L 30.72798,148.753 L 31.25498,149.821 L 31.51198,150.189 L 32.20198,150.795 L 32.63398,151.105 L 33.50398,152.025 L 34.70698,154.016 L 34.77498,154.129 L 34.70698,154.364 L 34.06798,154.273 L 32.27398,154.359 L 32.20198,153.953 L 32.04398,153.206 L 31.93098,152.927 L 31.83198,152.737 L 31.74198,152.615 L 31.53898,152.434 L 31.44398,152.413 L 30.93898,152.53 L 30.48798,152.507 L 30.25498,152.475 L 30.09198,152.434 L 30.01098,152.39 L 29.97898,152.371 L 29.83598,152.29 L 29.72698,152.226 L 29.33498,151.781 L 28.94698,151.223 L 28.65498,150.527 L 28.41098,149.794 L 28.38398,149.258 L 28.46598,148.748 L 29.30298,148.608 L 30.18198,148.851 L 30.24998,148.676 L 30.43898,147.969" data-info="&lt;div&gt;2729 - Santa Cruz, CA&lt;/div&gt;" data-info2="&lt;div&gt;56 - Santa Cruz, CA&lt;/div&gt;" id="06087" style="font-size:12px;fill-rule:nonzero;stroke:#FFFFFF;stroke-opacity:1;stroke-width:0.1;stroke-miterlimit:4;stroke-dasharray:none;stroke-linecap:butt;marker-start:none;stroke-linejoin:bevel;fill:#99d8c9">
   </path>
   <path d="M 29.59598,142.028 L 29.57798,142.033 L 29.35798,143.349 L 29.49198,143.56 L 31.05198,145.197 L 31.16498,145.268 L 31.43498,145.363 L 31.61998,145.314 L 31.62498,145.301 L 31.80998,145.765 L 30.43898,147.969 L 30.24998,148.676 L 30.18198,148.851 L 29.30298,148.608 L 28.46598,148.748 L 28.38398,149.258 L 28.41098,149.794 L 28.32998,149.663 L 28.05498,149.212 L 27.68498,148.522 L 27.63998,148.395 L 27.66298,147.783 L 27.82998,144.439 L 28.13998,143.078 L 28.51898,141.722 L 29.59598,142.028" data-info="&lt;div&gt;1911 - San Mateo, CA&lt;/div&gt;" data-info2="&lt;div&gt;45 - San Mateo, CA&lt;/div&gt;" id="06081" style="font-size:12px;fill-rule:nonzero;stroke:#FFFFFF;stroke-opacity:1;stroke-width:0.1;stroke-miterlimit:4;stroke-dasharray:none;stroke-linecap:butt;marker-start:none;stroke-linejoin:bevel;fill:#99d8c9">
   </path>
   <path d="M 31.03398,139.901 L 31.47998,139.91 L 31.53398,139.941 L 31.83698,140.365 L 32.02998,140.969 L 32.07098,141.27 L 33.83298,143.082 L 37.39798,142.987 L 38.12798,142.906 L 37.72298,144.367 L 37.16798,146.386 L 37.23998,146.54 L 37.78998,147.378 L 37.78098,147.368 L 34.04098,146.301 L 33.91898,146.287 L 33.81498,146.364 L 33.73798,146.4 L 33.38698,146.445 L 33.20698,146.422 L 31.97098,145.999 L 31.80998,145.765 L 31.62498,145.301 L 31.63398,143.038 L 30.85398,140.775 L 31.03398,139.901" data-info="&lt;div&gt;781 - Alameda, CA&lt;/div&gt;" data-info2="&lt;div&gt;29 - Alameda, CA&lt;/div&gt;" id="06001" style="font-size:12px;fill-rule:nonzero;stroke:#FFFFFF;stroke-opacity:1;stroke-width:0.1;stroke-miterlimit:4;stroke-dasharray:none;stroke-linecap:butt;marker-start:none;stroke-linejoin:bevel;fill:#99d8c9">
   </path>
   <path d="M 31.80998,145.765 L 31.97098,145.999 L 33.20698,146.422 L 33.38698,146.445 L 33.73798,146.4 L 33.81498,146.364 L 33.91898,146.287 L 34.04098,146.301 L 37.78098,147.368 L 37.62298,147.432 L 37.58298,148.108 L 37.87198,151.407 L 39.00698,152.386 L 39.06098,152.556 L 38.91698,153.251 L 38.70498,153.584 L 38.44798,153.701 L 38.30398,154.206 L 38.31298,154.279 L 38.38998,154.449 L 38.52898,154.593 L 36.52398,154.054 L 35.60498,153.859 L 34.70698,154.364 L 34.77498,154.129 L 34.70698,154.016 L 33.50398,152.025 L 32.63398,151.105 L 32.20198,150.795 L 31.51198,150.189 L 31.25498,149.821 L 30.72798,148.753 L 30.45698,148.184 L 30.43498,148.112 L 30.43898,147.969 L 31.80998,145.765" data-info="&lt;div&gt;363 - Santa Clara, CA&lt;/div&gt;" data-info2="&lt;div&gt;21 - Santa Clara, CA&lt;/div&gt;" id="06085" style="font-size:12px;fill-rule:nonzero;stroke:#FFFFFF;stroke-opacity:1;stroke-width:0.1;stroke-miterlimit:4;stroke-dasharray:none;stroke-linecap:butt;marker-start:none;stroke-linejoin:bevel;fill:#66c2a4">
   </path>
   <path d="M 45.14598,141.351 L 46.98098,145.138 L 48.93198,148.324 L 48.92698,148.329 L 43.65498,149.41 L 42.18998,149.843 L 42.26598,149.888 L 42.32398,150.015 L 42.30598,150.438 L 39.00698,152.386 L 37.87198,151.407 L 37.58298,148.108 L 37.62298,147.432 L 37.78098,147.368 L 37.78998,147.378 L 40.44498,145.809 L 40.91398,145.508 L 41.11598,145.417 L 42.25698,145.115 L 42.50898,145.206 L 43.00898,145.305 L 43.58698,145.372 L 44.14098,145.227 L 44.50198,143.745 L 45.14598,141.351" data-info="&lt;div&gt;368 - Stanislaus, CA&lt;/div&gt;" data-info2="&lt;div&gt;22 - Stanislaus, CA&lt;/div&gt;" id="06099" style="font-size:12px;fill-rule:nonzero;stroke:#FFFFFF;stroke-opacity:1;stroke-width:0.1;stroke-miterlimit:4;stroke-dasharray:none;stroke-linecap:butt;marker-start:none;stroke-linejoin:bevel;fill:#66c2a4">
   </path>
   <path d="M 48.93198,148.324 L 48.98098,147.819 L 49.06698,147.693 L 49.65698,147.269 L 52.58698,146.656 L 52.78098,146.756 L 53.62898,147.671 L 53.69998,147.802 L 53.75898,147.842 L 54.04798,147.981 L 54.98098,148.234 L 55.30098,148.23 L 56.53998,148.04 L 56.69698,147.955 L 57.56698,147.261 L 58.15398,147.126 L 59.10398,147.81 L 59.70798,148.505 L 59.97898,149.221 L 56.58898,151.286 L 56.36398,152.105 L 55.46698,152.908 L 54.37598,152.642 L 50.75798,154.851 L 50.03098,153.907 L 49.76598,153.53 L 49.35598,151.083 L 49.40098,151.038 L 49.40998,151.002 L 49.41398,150.812 L 48.92698,148.329 L 48.93198,148.324" data-info="&lt;div&gt;2927 - Mariposa, CA&lt;/div&gt;" data-info2="&lt;div&gt;58 - Mariposa, CA&lt;/div&gt;" id="06043" style="font-size:12px;fill-rule:nonzero;stroke:#FFFFFF;stroke-opacity:1;stroke-width:0.1;stroke-miterlimit:4;stroke-dasharray:none;stroke-linecap:butt;marker-start:none;stroke-linejoin:bevel;fill:#99d8c9">
   </path>
   <path d="M 58.49598,141.487 L 58.41998,141.55 L 58.31098,141.93 L 58.14898,143.114 L 58.56298,143.772 L 58.86098,144.025 L 59.09498,144.178 L 59.51898,144.408 L 59.87498,144.669 L 60.12298,144.863 L 60.51998,145.241 L 60.79898,145.85 L 61.31698,148.144 L 60.96598,149.279 L 60.42898,149.69 L 60.24898,149.807 L 59.97898,149.221 L 59.70798,148.505 L 59.10398,147.81 L 58.15398,147.126 L 57.56698,147.261 L 56.69698,147.955 L 56.53998,148.04 L 55.30098,148.23 L 54.98098,148.234 L 54.04798,147.981 L 53.75898,147.842 L 53.69998,147.802 L 53.62898,147.671 L 52.78098,146.756 L 52.58698,146.656 L 49.65698,147.269 L 49.06698,147.693 L 48.98098,147.819 L 48.93198,148.324 L 46.98098,145.138 L 48.74198,143.975 L 49.48598,143.244 L 50.72598,141.965 L 51.91098,140.865 L 53.42098,139.555 L 53.66498,139.441 L 53.89898,139.368 L 55.13798,139.198 L 56.23298,140.474 L 56.38198,140.401 L 57.15298,140.144 L 57.70698,140.076 L 58.09898,140.167 L 58.14398,140.212 L 58.17998,140.302 L 58.49598,141.487" data-info="&lt;div&gt;2689 - Tuolumne, CA&lt;/div&gt;" data-info2="&lt;div&gt;55 - Tuolumne, CA&lt;/div&gt;" id="06109" style="font-size:12px;fill-rule:nonzero;stroke:#FFFFFF;stroke-opacity:1;stroke-width:0.1;stroke-miterlimit:4;stroke-dasharray:none;stroke-linecap:butt;marker-start:none;stroke-linejoin:bevel;fill:#99d8c9">
   </path>
   <path d="M 60.25398,136.751 L 62.17798,139.631 L 63.47198,141.558 L 68.97898,149.843 L 73.57198,156.699 L 64.25098,154.494 L 62.19698,152.345 L 62.07898,151.002 L 61.76798,150.38 L 61.62898,150.213 L 60.99698,150.01 L 60.24898,149.807 L 60.42898,149.69 L 60.96598,149.279 L 61.31698,148.144 L 60.79898,145.85 L 60.51998,145.241 L 60.12298,144.863 L 59.87498,144.669 L 59.51898,144.408 L 59.09498,144.178 L 58.86098,144.025 L 58.56298,143.772 L 58.14898,143.114 L 58.31098,141.93 L 58.41998,141.55 L 58.49598,141.487 L 59.51398,140.621 L 59.98298,139.545 L 59.57698,138.048 L 59.59098,137.917 L 59.82598,137.313 L 60.25398,136.751" data-info="&lt;div&gt;1243 - Mono, CA&lt;/div&gt;" data-info2="&lt;div&gt;35 - Mono, CA&lt;/div&gt;" id="06051" style="font-size:12px;fill-rule:nonzero;stroke:#FFFFFF;stroke-opacity:1;stroke-width:0.1;stroke-miterlimit:4;stroke-dasharray:none;stroke-linecap:butt;marker-start:none;stroke-linejoin:bevel;fill:#99d8c9">
   </path>
   <path d="M 57.87898,133.189 L 60.25398,136.751 L 59.82598,137.313 L 59.59098,137.917 L 59.57698,138.048 L 59.98298,139.545 L 59.51398,140.621 L 58.49598,141.487 L 58.17998,140.302 L 58.14398,140.212 L 58.09898,140.167 L 57.70698,140.076 L 57.15298,140.144 L 56.38198,140.401 L 56.23298,140.474 L 55.13798,139.198 L 54.87698,138.102 L 55.50298,135.673 L 56.83298,135.011 L 57.07998,134.831 L 57.88698,134.113 L 57.93698,134.036 L 58.00498,133.677 L 57.99098,133.429 L 57.87898,133.189" data-info="&lt;div&gt;2927 - Alpine, CA&lt;/div&gt;" data-info2="&lt;div&gt;57 - Alpine, CA&lt;/div&gt;" id="06003" style="font-size:12px;fill-rule:nonzero;stroke:#FFFFFF;stroke-opacity:1;stroke-width:0.1;stroke-miterlimit:4;stroke-dasharray:none;stroke-linecap:butt;marker-start:none;stroke-linejoin:bevel;fill:#99d8c9">
   </path>
   <path d="M 55.13798,139.198 L 53.89898,139.368 L 53.66498,139.441 L 53.42098,139.555 L 51.91098,140.865 L 50.72598,141.965 L 49.48598,143.244 L 48.74198,143.975 L 46.98098,145.138 L 45.14598,141.351 L 44.97498,139.31 L 45.04198,139.387 L 45.16798,139.464 L 45.95298,139.631 L 48.33698,138.878 L 50.13998,138.084 L 50.60898,137.841 L 51.04598,137.867 L 54.87698,138.102 L 55.13798,139.198" data-info="&lt;div&gt;2035 - Calaveras, CA&lt;/div&gt;" data-info2="&lt;div&gt;46 - Calaveras, CA&lt;/div&gt;" id="06009" style="font-size:12px;fill-rule:nonzero;stroke:#FFFFFF;stroke-opacity:1;stroke-width:0.1;stroke-miterlimit:4;stroke-dasharray:none;stroke-linecap:butt;marker-start:none;stroke-linejoin:bevel;fill:#99d8c9">
   </path>
   <path d="M 55.50298,135.673 L 54.87698,138.102 L 51.04598,137.867 L 50.60898,137.841 L 50.13998,138.084 L 48.33698,138.878 L 45.95298,139.631 L 45.16798,139.464 L 45.04198,139.387 L 44.97498,139.31 L 44.92098,138.323 L 45.61898,135.682 L 46.55198,135.79 L 49.47198,136.777 L 49.91898,136.89 L 50.63498,136.972 L 52.60998,137.061 L 53.16898,136.972 L 55.50298,135.673" data-info="&lt;div&gt;2569 - Amador, CA&lt;/div&gt;" data-info2="&lt;div&gt;51 - Amador, CA&lt;/div&gt;" id="06005" style="font-size:12px;fill-rule:nonzero;stroke:#FFFFFF;stroke-opacity:1;stroke-width:0.1;stroke-miterlimit:4;stroke-dasharray:none;stroke-linecap:butt;marker-start:none;stroke-linejoin:bevel;fill:#99d8c9">
   </path>
   <path d="M 44.97498,139.31 L 45.14598,141.351 L 44.50198,143.745 L 44.14098,145.227 L 43.58698,145.372 L 43.00898,145.305 L 42.50898,145.206 L 42.25698,145.115 L 41.11598,145.417 L 40.91398,145.508 L 40.44498,145.809 L 37.78998,147.378 L 37.23998,146.54 L 37.16798,146.386 L 37.72298,144.367 L 38.12798,142.906 L 38.83598,139.409 L 39.27298,138.842 L 40.35998,137.691 L 40.58898,137.691 L 40.76498,137.765 L 40.88598,138.044 L 41.07198,138.22 L 41.55798,138.341 L 43.34298,138.549 L 43.41098,138.54 L 44.10498,138.301 L 44.92098,138.323 L 44.97498,139.31" data-info="&lt;div&gt;170 - San Joaquin, CA&lt;/div&gt;" data-info2="&lt;div&gt;16 - San Joaquin, CA&lt;/div&gt;" id="06077" style="font-size:12px;fill-rule:nonzero;stroke:#FFFFFF;stroke-opacity:1;stroke-width:0.1;stroke-miterlimit:4;stroke-dasharray:none;stroke-linecap:butt;marker-start:none;stroke-linejoin:bevel;fill:#66c2a4">
   </path>
   <path d="M 32.06198,137.967 L 32.93198,138.494 L 33.43198,138.639 L 35.55898,139.156 L 35.70298,139.171 L 35.83398,139.162 L 35.92498,139.103 L 36.00598,139.004 L 36.21298,139.572 L 36.30298,139.693 L 36.55598,139.797 L 36.66798,139.823 L 37.05998,139.832 L 37.50198,139.707 L 37.74098,139.557 L 37.78998,139.468 L 37.81798,139.287 L 37.86698,139.207 L 37.93898,139.171 L 38.05098,139.171 L 38.62398,139.274 L 38.80398,139.368 L 38.83598,139.409 L 38.12798,142.906 L 37.39798,142.987 L 33.83298,143.082 L 32.07098,141.27 L 32.02998,140.969 L 31.83698,140.365 L 31.53398,139.941 L 31.47998,139.91 L 31.03398,139.901 L 30.64698,139.617 L 30.27698,138.774 L 31.55698,138.494 L 31.76898,138.394 L 32.04398,138.179 L 32.07098,138.093 L 32.06198,137.967" data-info="&lt;div&gt;303 - Contra Costa, CA&lt;/div&gt;" data-info2="&lt;div&gt;20 - Contra Costa, CA&lt;/div&gt;" id="06013" style="font-size:12px;fill-rule:nonzero;stroke:#FFFFFF;stroke-opacity:1;stroke-width:0.1;stroke-miterlimit:4;stroke-dasharray:none;stroke-linecap:butt;marker-start:none;stroke-linejoin:bevel;fill:#66c2a4">
   </path>
   <path d="M 57.36898,131.256 L 57.87898,133.189 L 57.99098,133.429 L 58.00498,133.677 L 57.93698,134.036 L 57.88698,134.113 L 57.07998,134.831 L 56.83298,135.011 L 55.50298,135.673 L 53.16898,136.972 L 52.60998,137.061 L 50.63498,136.972 L 49.91898,136.89 L 49.47198,136.777 L 46.55198,135.79 L 45.61898,135.682 L 45.21398,132.824 L 46.44398,131.355 L 46.71898,130.756 L 46.93098,130.58 L 47.99398,130.278 L 49.35098,130.057 L 49.78398,130.08 L 49.85198,130.107 L 50.08598,130.245 L 50.39698,130.566 L 50.50898,130.818 L 50.59098,130.955 L 50.72998,131.116 L 51.32498,131.706 L 51.44698,131.779 L 51.52798,131.779 L 52.00998,131.688 L 52.24898,131.581 L 52.78098,131.135 L 54.93098,131.216 L 55.49898,131.265 L 55.70598,131.216 L 55.84598,131.156 L 55.88598,131.004 L 56.00798,130.909 L 57.36898,131.256" data-info="&lt;div&gt;2076 - El Dorado, CA&lt;/div&gt;" data-info2="&lt;div&gt;48 - El Dorado, CA&lt;/div&gt;" id="06017" style="font-size:12px;fill-rule:nonzero;stroke:#FFFFFF;stroke-opacity:1;stroke-width:0.1;stroke-miterlimit:4;stroke-dasharray:none;stroke-linecap:butt;marker-start:none;stroke-linejoin:bevel;fill:#99d8c9">
   </path>
   <path d="M 41.98198,131.64 L 45.21398,132.824 L 45.61898,135.682 L 44.92098,138.323 L 44.10498,138.301 L 43.41098,138.54 L 43.34298,138.549 L 41.55798,138.341 L 41.07198,138.22 L 40.88598,138.044 L 40.76498,137.765 L 40.58898,137.691 L 40.35998,137.691 L 39.27298,138.842 L 38.83598,139.409 L 38.80398,139.368 L 38.62398,139.274 L 38.05098,139.171 L 37.93898,139.171 L 37.86698,139.207 L 37.81798,139.287 L 37.78998,139.468 L 37.74098,139.557 L 37.50198,139.707 L 37.05998,139.832 L 36.66798,139.823 L 36.55598,139.797 L 36.30298,139.693 L 36.21298,139.572 L 36.00598,139.004 L 36.59198,139.251 L 37.55098,139.156 L 38.65498,138.019 L 39.47998,136.634 L 40.13798,136.349 L 40.33298,136.232 L 40.82398,135.218 L 41.26098,133.437 L 41.27498,133.303 L 41.26098,133.244 L 40.88598,132.581 L 40.84598,131.31 L 41.98198,131.64" data-info="&lt;div&gt;189 - Sacramento, CA&lt;/div&gt;" data-info2="&lt;div&gt;17 - Sacramento, CA&lt;/div&gt;" id="06067" style="font-size:12px;fill-rule:nonzero;stroke:#FFFFFF;stroke-opacity:1;stroke-width:0.1;stroke-miterlimit:4;stroke-dasharray:none;stroke-linecap:butt;marker-start:none;stroke-linejoin:bevel;fill:#66c2a4">
   </path>
   <path d="M 31.04298,136.39 L 33.08998,136.98 L 33.13398,136.863 L 33.11198,136.805 L 33.07598,136.8 L 33.02198,136.724 L 32.98598,136.619 L 33.01298,136.507 L 33.55798,134.943 L 34.92398,135.325 L 34.96898,135.218 L 34.98298,135.105 L 34.99598,134.875 L 34.98698,134.767 L 34.94198,134.474 L 34.72098,133.807 L 34.72498,133.744 L 34.74298,133.659 L 35.19798,132.803 L 35.24798,132.748 L 35.70298,132.824 L 39.11498,133.505 L 39.21898,133.677 L 39.21898,133.717 L 39.11098,134.177 L 38.49798,136.353 L 39.47998,136.634 L 38.65498,138.019 L 37.55098,139.156 L 36.59198,139.251 L 36.00598,139.004 L 35.92498,139.103 L 35.83398,139.162 L 35.70298,139.171 L 35.55898,139.156 L 33.43198,138.639 L 32.93198,138.494 L 32.06198,137.967 L 31.06098,136.466 L 31.04298,136.39" data-info="&lt;div&gt;25 - Solano, CA&lt;/div&gt;" data-info2="&lt;div&gt;7 - Solano, CA&lt;/div&gt;" id="06095" style="font-size:12px;fill-rule:nonzero;stroke:#FFFFFF;stroke-opacity:1;stroke-width:0.1;stroke-miterlimit:4;stroke-dasharray:none;stroke-linecap:butt;marker-start:none;stroke-linejoin:bevel;fill:#2ca25f">
   </path>
   <path d="M 29.59598,142.028 L 28.51898,141.722 L 28.51898,141.713 L 28.53198,141.514 L 28.65898,140.779 L 28.77598,140.712 L 29.23998,140.621 L 29.62798,140.648 L 29.81298,140.694 L 29.88098,140.794 L 29.95198,141.014 L 29.89398,141.784 L 29.83598,141.97 L 29.59598,142.028" data-info="&lt;div&gt;2680 - San Franciso, CA&lt;/div&gt;" data-info2="&lt;div&gt;54 - San Franciso, CA&lt;/div&gt;" id="06075" style="font-size:12px;fill-rule:nonzero;stroke:#FFFFFF;stroke-opacity:1;stroke-width:0.1;stroke-miterlimit:4;stroke-dasharray:none;stroke-linecap:butt;marker-start:none;stroke-linejoin:bevel;fill:#99d8c9">
   </path>
   <path d="M 25.78298,132.965 L 25.90498,132.901 L 26.72098,132.92 L 26.80198,132.941 L 28.93398,135.479 L 30.06498,136.741 L 29.70498,137.679 L 29.33098,138.864 L 29.30298,138.964 L 29.37098,139.071 L 29.53798,139.278 L 29.70498,139.555 L 29.76298,139.698 L 29.75898,139.738 L 29.16398,140.319 L 28.89798,140.288 L 28.73098,140.202 L 28.61798,140.094 L 25.44098,136.448 L 25.96798,133.64 L 25.93698,133.401 L 25.82398,133.072 L 25.78298,132.965" data-info="&lt;div&gt;1471 - Marin, CA&lt;/div&gt;" data-info2="&lt;div&gt;39 - Marin, CA&lt;/div&gt;" id="06041" style="font-size:12px;fill-rule:nonzero;stroke:#FFFFFF;stroke-opacity:1;stroke-width:0.1;stroke-miterlimit:4;stroke-dasharray:none;stroke-linecap:butt;marker-start:none;stroke-linejoin:bevel;fill:#99d8c9">
   </path>
   <path d="M 33.68498,127.564 L 34.62698,128.16 L 35.12198,130.796 L 35.23898,131.54 L 35.25298,131.806 L 35.24798,132.748 L 35.19798,132.803 L 34.74298,133.659 L 34.72498,133.744 L 34.72098,133.807 L 34.94198,134.474 L 34.98698,134.767 L 34.99598,134.875 L 34.98298,135.105 L 34.96898,135.218 L 34.92398,135.325 L 33.55798,134.943 L 33.01298,136.507 L 32.98598,136.619 L 33.02198,136.724 L 33.07598,136.8 L 33.11198,136.805 L 33.13398,136.863 L 33.08998,136.98 L 31.04298,136.39 L 31.43498,136.462 L 31.74598,135.957 L 31.76898,135.66 L 31.75998,135.358 L 31.63798,134.316 L 30.94798,131.874 L 30.55198,130.787 L 30.58398,129.94 L 30.74998,129.385 L 32.45798,129.363 L 33.61298,128.385 L 33.72498,128.214 L 33.68498,127.564" data-info="&lt;div&gt;1459 - Napa, CA&lt;/div&gt;" data-info2="&lt;div&gt;37 - Napa, CA&lt;/div&gt;" id="06055" style="font-size:12px;fill-rule:nonzero;stroke:#FFFFFF;stroke-opacity:1;stroke-width:0.1;stroke-miterlimit:4;stroke-dasharray:none;stroke-linecap:butt;marker-start:none;stroke-linejoin:bevel;fill:#99d8c9">
   </path>
   <path d="M 22.42998,125.582 L 22.81798,125.558 L 24.15198,125.572 L 27.07198,125.811 L 29.54698,126.563 L 30.74998,129.385 L 30.58398,129.94 L 30.55198,130.787 L 30.94798,131.874 L 31.63798,134.316 L 31.75998,135.358 L 31.76898,135.66 L 31.74598,135.957 L 31.43498,136.462 L 31.04298,136.39 L 31.06098,136.466 L 30.06498,136.741 L 28.93398,135.479 L 26.80198,132.941 L 26.72098,132.92 L 25.90498,132.901 L 25.78298,132.965 L 25.14398,130.692 L 23.05698,126.699 L 22.42998,125.582" data-info="&lt;div&gt;1468 - Sonoma, CA&lt;/div&gt;" data-info2="&lt;div&gt;38 - Sonoma, CA&lt;/div&gt;" id="06097" style="font-size:12px;fill-rule:nonzero;stroke:#FFFFFF;stroke-opacity:1;stroke-width:0.1;stroke-miterlimit:4;stroke-dasharray:none;stroke-linecap:butt;marker-start:none;stroke-linejoin:bevel;fill:#99d8c9">
   </path>
   <path d="M 34.42398,126.965 L 39.26398,128.321 L 40.84598,131.31 L 40.88598,132.581 L 41.26098,133.244 L 41.27498,133.303 L 41.26098,133.437 L 40.82398,135.218 L 40.33298,136.232 L 40.13798,136.349 L 39.47998,136.634 L 38.49798,136.353 L 39.11098,134.177 L 39.21898,133.717 L 39.21898,133.677 L 39.11498,133.505 L 35.70298,132.824 L 35.24798,132.748 L 35.25298,131.806 L 35.23898,131.54 L 35.12198,130.796 L 34.62698,128.16 L 33.68498,127.564 L 34.42398,126.965" data-info="&lt;div&gt;51 - Yolo, CA&lt;/div&gt;" data-info2="&lt;div&gt;10 - Yolo, CA&lt;/div&gt;" id="06113" style="font-size:12px;fill-rule:nonzero;stroke:#FFFFFF;stroke-opacity:1;stroke-width:0.1;stroke-miterlimit:4;stroke-dasharray:none;stroke-linecap:butt;marker-start:none;stroke-linejoin:bevel;fill:#2ca25f">
   </path>
   <path d="M 43.55098,128.534 L 44.97898,128.417 L 45.45698,128.826 L 45.56098,128.876 L 46.91298,129.331 L 47.23698,129.277 L 47.85898,128.66 L 47.94498,128.534 L 48.02098,128.336 L 48.10698,128.245 L 48.57598,127.893 L 49.04498,127.65 L 49.75698,127.295 L 51.12198,126.659 L 51.63198,126.542 L 52.00598,126.526 L 58.14898,128.119 L 57.66698,130.016 L 57.50498,130.688 L 57.36898,131.256 L 56.00798,130.909 L 55.88598,131.004 L 55.84598,131.156 L 55.70598,131.216 L 55.49898,131.265 L 54.93098,131.216 L 52.78098,131.135 L 52.24898,131.581 L 52.00998,131.688 L 51.52798,131.779 L 51.44698,131.779 L 51.32498,131.706 L 50.72998,131.116 L 50.59098,130.955 L 50.50898,130.818 L 50.39698,130.566 L 50.08598,130.245 L 49.85198,130.107 L 49.78398,130.08 L 49.35098,130.057 L 47.99398,130.278 L 46.93098,130.58 L 46.71898,130.756 L 46.44398,131.355 L 45.21398,132.824 L 41.98198,131.64 L 42.78398,129.277 L 43.31598,129.417 L 43.55098,128.534" data-info="&lt;div&gt;496 - Placer, CA&lt;/div&gt;" data-info2="&lt;div&gt;25 - Placer, CA&lt;/div&gt;" id="06061" style="font-size:12px;fill-rule:nonzero;stroke:#FFFFFF;stroke-opacity:1;stroke-width:0.1;stroke-miterlimit:4;stroke-dasharray:none;stroke-linecap:butt;marker-start:none;stroke-linejoin:bevel;fill:#66c2a4">
   </path>
   <path d="M 58.58598,126.501 L 58.14898,128.119 L 52.00598,126.526 L 51.63198,126.542 L 51.12198,126.659 L 49.75698,127.295 L 49.04498,127.65 L 48.57598,127.893 L 48.10698,128.245 L 48.02098,128.336 L 47.94498,128.534 L 47.85898,128.66 L 47.23698,129.277 L 46.91298,129.331 L 45.56098,128.876 L 45.45698,128.826 L 44.97898,128.417 L 45.65098,125.956 L 45.91198,125.541 L 46.79098,124.932 L 47.61498,124.499 L 48.15198,124.441 L 48.38698,124.477 L 48.65698,124.607 L 48.79198,124.45 L 49.01698,124.392 L 50.63998,124.522 L 51.91098,124.206 L 51.94298,124.167 L 52.08698,124.044 L 52.42898,123.878 L 52.58298,123.856 L 53.29498,124.085 L 53.49798,124.338 L 53.56998,124.946 L 53.78098,125.194 L 53.90798,125.266 L 58.58598,126.501" data-info="&lt;div&gt;1831 - Nevada, CA&lt;/div&gt;" data-info2="&lt;div&gt;44 - Nevada, CA&lt;/div&gt;" id="06057" style="font-size:12px;fill-rule:nonzero;stroke:#FFFFFF;stroke-opacity:1;stroke-width:0.1;stroke-miterlimit:4;stroke-dasharray:none;stroke-linecap:butt;marker-start:none;stroke-linejoin:bevel;fill:#99d8c9">
   </path>
   <path d="M 49.62098,121.526 L 50.54498,120.938 L 50.67198,120.471 L 50.92798,120.29 L 51.39698,120.155 L 53.22698,121.589 L 55.21498,122.084 L 58.06798,122.842 L 59.50598,123.017 L 58.58598,126.501 L 53.90798,125.266 L 53.78098,125.194 L 53.56998,124.946 L 53.49798,124.338 L 53.29498,124.085 L 52.58298,123.856 L 52.42898,123.878 L 52.08698,124.044 L 51.94298,124.167 L 51.91098,124.206 L 50.63998,124.522 L 49.01698,124.392 L 48.79198,124.45 L 48.65698,124.607 L 49.62098,121.526" data-info="&lt;div&gt;2570 - Sierra, CA&lt;/div&gt;" data-info2="&lt;div&gt;52 - Sierra, CA&lt;/div&gt;" id="06091" style="font-size:12px;fill-rule:nonzero;stroke:#FFFFFF;stroke-opacity:1;stroke-width:0.1;stroke-miterlimit:4;stroke-dasharray:none;stroke-linecap:butt;marker-start:none;stroke-linejoin:bevel;fill:#99d8c9">
   </path>
   <path d="M 48.83798,121.882 L 49.62098,121.526 L 48.65698,124.607 L 48.38698,124.477 L 48.15198,124.441 L 47.61498,124.499 L 46.79098,124.932 L 45.91198,125.541 L 45.65098,125.956 L 44.97898,128.417 L 43.55098,128.534 L 43.12698,128.402 L 42.90998,128.408 L 42.23498,128.502 L 41.99498,128.691 L 41.85598,128.84 L 41.84198,127.498 L 42.28898,124.824 L 42.34698,124.631 L 42.51798,124.269 L 42.58098,124.233 L 43.83398,124.302 L 44.82998,124.23 L 45.22198,124.031 L 48.83798,121.882" data-info="&lt;div&gt;84 - Yuba, CA&lt;/div&gt;" data-info2="&lt;div&gt;14 - Yuba, CA&lt;/div&gt;" id="06115" style="font-size:12px;fill-rule:nonzero;stroke:#FFFFFF;stroke-opacity:1;stroke-width:0.1;stroke-miterlimit:4;stroke-dasharray:none;stroke-linecap:butt;marker-start:none;stroke-linejoin:bevel;fill:#66c2a4">
   </path>
   <path d="M 42.58098,124.233 L 42.51798,124.269 L 42.34698,124.631 L 42.28898,124.824 L 41.84198,127.498 L 41.85598,128.84 L 41.99498,128.691 L 42.23498,128.502 L 42.90998,128.408 L 43.12698,128.402 L 43.55098,128.534 L 43.31598,129.417 L 42.78398,129.277 L 41.98198,131.64 L 40.84598,131.31 L 39.26398,128.321 L 39.64298,127.569 L 39.30098,126.036 L 39.01098,125.442 L 39.10598,124.82 L 39.89498,123.378 L 42.58098,124.233" data-info="&lt;div&gt;16 - Sutter, CA&lt;/div&gt;" data-info2="&lt;div&gt;5 - Sutter, CA&lt;/div&gt;" id="06101" style="font-size:12px;fill-rule:nonzero;stroke:#FFFFFF;stroke-opacity:1;stroke-width:0.1;stroke-miterlimit:4;stroke-dasharray:none;stroke-linecap:butt;marker-start:none;stroke-linejoin:bevel;fill:#006d2c">
   </path>
   <path d="M 40.35098,122.428 L 39.89498,123.378 L 39.10598,124.82 L 39.01098,125.442 L 39.30098,126.036 L 39.64298,127.569 L 39.26398,128.321 L 34.42398,126.965 L 33.94598,126.397 L 33.90098,126.294 L 33.55798,124.986 L 33.59398,124.081 L 32.63898,122.449 L 32.29198,122.102 L 31.74598,121.291 L 31.66498,120.903 L 31.86298,120.569 L 32.25998,120.138 L 40.35098,122.428" data-info="&lt;div&gt;4 - Colusa, CA&lt;/div&gt;" data-info2="&lt;div&gt;2 - Colusa, CA&lt;/div&gt;" id="06011" style="font-size:12px;fill-rule:nonzero;stroke:#FFFFFF;stroke-opacity:1;stroke-width:0.1;stroke-miterlimit:4;stroke-dasharray:none;stroke-linecap:butt;marker-start:none;stroke-linejoin:bevel;fill:#006d2c">
   </path>
   <path d="M 32.25998,120.138 L 31.86298,120.569 L 31.66498,120.903 L 31.74598,121.291 L 32.29198,122.102 L 32.63898,122.449 L 33.59398,124.081 L 33.55798,124.986 L 33.90098,126.294 L 33.94598,126.397 L 34.42398,126.965 L 33.68498,127.564 L 33.72498,128.214 L 33.61298,128.385 L 32.45798,129.363 L 30.74998,129.385 L 29.54698,126.563 L 28.72698,125.632 L 28.47898,125.234 L 27.92498,123.779 L 27.75798,123.04 L 27.77998,122.931 L 27.83398,122.747 L 28.05498,122.228 L 28.27598,121.813 L 28.70398,121.682 L 29.12298,121.214 L 29.20898,120.674 L 29.15498,118.901 L 29.26298,118.542 L 29.33998,118.347 L 29.61898,117.738 L 30.03298,117.653 L 30.86798,117.929 L 31.35398,117.901 L 31.52598,117.46 L 31.58398,117.274 L 33.00798,117.681 L 32.67898,118.956 L 32.56698,119.311 L 32.25998,120.138" data-info="&lt;div&gt;1571 - Lake, CA&lt;/div&gt;" data-info2="&lt;div&gt;40 - Lake, CA&lt;/div&gt;" id="06033" style="font-size:12px;fill-rule:nonzero;stroke:#FFFFFF;stroke-opacity:1;stroke-width:0.1;stroke-miterlimit:4;stroke-dasharray:none;stroke-linecap:butt;marker-start:none;stroke-linejoin:bevel;fill:#99d8c9">
   </path>
   <path d="M 40.31498,116.829 L 40.18798,116.608 L 40.24698,116.233 L 40.64798,115.774 L 42.91498,116.386 L 43.19498,116.405 L 43.49598,116.247 L 43.57298,116.014 L 43.64998,115.859 L 43.79798,115.702 L 44.21298,115.399 L 45.95698,114.318 L 46.43998,114.449 L 47.05698,114.332 L 47.17798,114.26 L 47.31398,113.999 L 47.61498,114.084 L 47.73298,114.696 L 47.74598,115.004 L 47.69698,115.18 L 47.48598,115.391 L 46.68298,117.717 L 48.10198,120.3 L 48.83798,121.882 L 45.22198,124.031 L 44.82998,124.23 L 43.83398,124.302 L 42.58098,124.233 L 39.89498,123.378 L 40.35098,122.428 L 41.18898,120.651 L 41.20198,120.6 L 40.80598,118.023 L 40.31498,116.829" data-info="&lt;div&gt;9 - Butte, CA&lt;/div&gt;" data-info2="&lt;div&gt;3 - Butte, CA&lt;/div&gt;" id="06007" style="font-size:12px;fill-rule:nonzero;stroke:#FFFFFF;stroke-opacity:1;stroke-width:0.1;stroke-miterlimit:4;stroke-dasharray:none;stroke-linecap:butt;marker-start:none;stroke-linejoin:bevel;fill:#006d2c">
   </path>
   <path d="M 31.88198,114.409 L 40.31498,116.829 L 40.80598,118.023 L 41.20198,120.6 L 41.18898,120.651 L 40.35098,122.428 L 32.25998,120.138 L 32.56698,119.311 L 32.67898,118.956 L 33.00798,117.681 L 31.58398,117.274 L 31.88198,114.409" data-info="&lt;div&gt;11 - Glenn, CA&lt;/div&gt;" data-info2="&lt;div&gt;4 - Glenn, CA&lt;/div&gt;" id="06021" style="font-size:12px;fill-rule:nonzero;stroke:#FFFFFF;stroke-opacity:1;stroke-width:0.1;stroke-miterlimit:4;stroke-dasharray:none;stroke-linecap:butt;marker-start:none;stroke-linejoin:bevel;fill:#006d2c">
   </path>
   <path d="M 47.75098,110.158 L 49.34698,110.6 L 51.85698,111.266 L 51.21298,113.651 L 51.32998,113.972 L 52.25398,114.796 L 52.60998,114.891 L 52.81198,114.845 L 52.89398,114.544 L 53.87198,113.76 L 54.21798,113.656 L 54.57898,113.751 L 56.23798,114.994 L 58.42798,117.563 L 58.70798,117.929 L 59.18998,120.019 L 59.18098,120.412 L 59.08598,120.776 L 58.60398,122.202 L 58.06798,122.842 L 55.21498,122.084 L 53.22698,121.589 L 51.39698,120.155 L 50.92798,120.29 L 50.67198,120.471 L 50.54498,120.938 L 49.62098,121.526 L 48.83798,121.882 L 48.10198,120.3 L 46.68298,117.717 L 47.48598,115.391 L 47.69698,115.18 L 47.74598,115.004 L 47.73298,114.696 L 47.61498,114.084 L 47.31398,113.999 L 48.16598,113.417 L 48.20198,113.381 L 48.27398,113.268 L 48.57098,112.38 L 48.45398,111.775 L 48.36898,111.759 L 47.69698,111.433 L 47.66498,111.402 L 47.62898,111.276 L 47.63298,111.19 L 47.70098,110.329 L 47.75098,110.158" data-info="&lt;div&gt;1024 - Plumas, CA&lt;/div&gt;" data-info2="&lt;div&gt;31 - Plumas, CA&lt;/div&gt;" id="06063" style="font-size:12px;fill-rule:nonzero;stroke:#FFFFFF;stroke-opacity:1;stroke-width:0.1;stroke-miterlimit:4;stroke-dasharray:none;stroke-linecap:butt;marker-start:none;stroke-linejoin:bevel;fill:#99d8c9">
   </path>
   <path d="M 47.75098,110.158 L 47.70098,110.329 L 47.63298,111.19 L 47.62898,111.276 L 47.66498,111.402 L 47.69698,111.433 L 48.36898,111.759 L 48.45398,111.775 L 48.57098,112.38 L 48.27398,113.268 L 48.20198,113.381 L 48.16598,113.417 L 47.31398,113.999 L 47.17798,114.26 L 47.05698,114.332 L 46.43998,114.449 L 45.95698,114.318 L 44.21298,115.399 L 43.79798,115.702 L 43.64998,115.859 L 43.57298,116.014 L 43.49598,116.247 L 43.19498,116.405 L 42.91498,116.386 L 40.64798,115.774 L 40.24698,116.233 L 40.18798,116.608 L 40.31498,116.829 L 31.88198,114.409 L 31.84098,114.345 L 31.84098,113.765 L 32.13398,113.169 L 32.48098,112.966 L 32.58498,112.731 L 32.61598,112.313 L 32.57098,112.175 L 32.53998,111.934 L 32.75198,110.172 L 32.93598,109.522 L 32.98598,109.477 L 33.10798,108.901 L 33.11598,108.768 L 33.06698,108.657 L 32.45798,107.964 L 33.28798,107.868 L 34.63998,107.837 L 35.72098,107.85 L 37.98898,108.157 L 38.60098,108.572 L 39.53398,108.87 L 39.86398,108.958 L 41.10798,109.041 L 42.03598,109.009 L 42.86998,109.054 L 44.41598,109.274 L 45.78598,109.546 L 47.75098,110.158" data-info="&lt;div&gt;554 - Tehama, CA&lt;/div&gt;" data-info2="&lt;div&gt;26 - Tehama, CA&lt;/div&gt;" id="06103" style="font-size:12px;fill-rule:nonzero;stroke:#FFFFFF;stroke-opacity:1;stroke-width:0.1;stroke-miterlimit:4;stroke-dasharray:none;stroke-linecap:butt;marker-start:none;stroke-linejoin:bevel;fill:#66c2a4">
   </path>
   <path d="M 22.39898,108.838 L 26.90998,110.185 L 26.81598,110.492 L 32.57098,112.175 L 32.61598,112.313 L 32.58498,112.731 L 32.48098,112.966 L 32.13398,113.169 L 31.84098,113.765 L 31.84098,114.345 L 31.88198,114.409 L 31.58398,117.274 L 31.52598,117.46 L 31.35398,117.901 L 30.86798,117.929 L 30.03298,117.653 L 29.61898,117.738 L 29.33998,118.347 L 29.26298,118.542 L 29.15498,118.901 L 29.20898,120.674 L 29.12298,121.214 L 28.70398,121.682 L 28.27598,121.813 L 28.05498,122.228 L 27.83398,122.747 L 27.77998,122.931 L 27.75798,123.04 L 27.92498,123.779 L 28.47898,125.234 L 28.72698,125.632 L 29.54698,126.563 L 27.07198,125.811 L 24.15198,125.572 L 22.81798,125.558 L 22.42998,125.582 L 21.96998,124.758 L 21.28098,123.268 L 21.83098,117.591 L 21.86198,117.37 L 21.88398,117.27 L 22.06998,116.807 L 22.28598,116.333 L 22.51098,116.005 L 22.63698,115.819 L 22.80898,115.64 L 22.87198,115.554 L 22.90798,115.504 L 22.91698,115.494 L 23.14198,115.147 L 23.15998,115.057 L 23.35398,113.76 L 23.38498,113.439 L 23.38098,111.43 L 23.37198,111.397 L 22.93898,110.244 L 22.70098,109.622 L 22.39898,108.838" data-info="&lt;div&gt;2132 - Mendocino, CA&lt;/div&gt;" data-info2="&lt;div&gt;49 - Mendocino, CA&lt;/div&gt;" id="06045" style="font-size:12px;fill-rule:nonzero;stroke:#FFFFFF;stroke-opacity:1;stroke-width:0.1;stroke-miterlimit:4;stroke-dasharray:none;stroke-linecap:butt;marker-start:none;stroke-linejoin:bevel;fill:#99d8c9">
   </path>
   <path d="M 30.95698,92.68 L 32.43598,93.117 L 32.61598,93.374 L 32.54398,95.893 L 32.38598,96.047 L 32.21998,96.272 L 31.92198,96.862 L 31.90398,97.282 L 31.95298,97.367 L 31.90398,97.994 L 31.19698,98.715 L 30.88498,98.99 L 29.84398,99.828 L 29.55098,101.32 L 26.90998,110.185 L 22.39898,108.838 L 22.18198,108.456 L 20.26698,104.8 L 20.20798,104.638 L 20.45098,102.303 L 20.48298,102.244 L 21.30298,101.063 L 21.87998,100.319 L 22.10098,100.071 L 22.49798,99.648 L 23.08798,99.075 L 23.78198,98.336 L 24.16598,97.931 L 24.45798,97.579 L 24.84198,97.025 L 25.25998,96.29 L 25.46398,95.821 L 25.41398,95.533 L 26.62598,92.653 L 27.54198,90.53 L 29.19998,91.016 L 30.25498,91.359 L 30.05598,92.026 L 30.42998,92.526 L 30.95698,92.68" data-info="&lt;div&gt;29 - Humboldt, CA&lt;/div&gt;" data-info2="&lt;div&gt;8 - Humboldt, CA&lt;/div&gt;" id="06023" style="font-size:12px;fill-rule:nonzero;stroke:#FFFFFF;stroke-opacity:1;stroke-width:0.1;stroke-miterlimit:4;stroke-dasharray:none;stroke-linecap:butt;marker-start:none;stroke-linejoin:bevel;fill:#2ca25f">
   </path>
   <path d="M 32.54398,95.893 L 33.00398,96.263 L 33.44598,96.691 L 34.15798,97.759 L 35.45598,99.129 L 36.21298,99.513 L 36.39798,99.54 L 36.61398,99.369 L 36.73098,99.161 L 36.64498,98.562 L 38.05598,97.101 L 40.07998,96.304 L 41.21998,97.007 L 40.98598,98.318 L 41.17598,98.453 L 41.33298,98.624 L 41.35998,98.746 L 41.21998,99.256 L 41.15298,99.369 L 41.06298,99.499 L 39.97598,100.464 L 39.61998,100.594 L 39.55698,100.603 L 36.96998,103.749 L 35.31098,105.841 L 33.76998,106.553 L 32.59798,107.504 L 32.45798,107.964 L 33.06698,108.657 L 33.11598,108.768 L 33.10798,108.901 L 32.98598,109.477 L 32.93598,109.522 L 32.75198,110.172 L 32.53998,111.934 L 32.57098,112.175 L 26.81598,110.492 L 26.90998,110.185 L 29.55098,101.32 L 29.84398,99.828 L 30.88498,98.99 L 31.19698,98.715 L 31.90398,97.994 L 31.95298,97.367 L 31.90398,97.282 L 31.92198,96.862 L 32.21998,96.272 L 32.38598,96.047 L 32.54398,95.893" data-info="&lt;div&gt;1695 - Trinity, CA&lt;/div&gt;" data-info2="&lt;div&gt;41 - Trinity, CA&lt;/div&gt;" id="06105" style="font-size:12px;fill-rule:nonzero;stroke:#FFFFFF;stroke-opacity:1;stroke-width:0.1;stroke-miterlimit:4;stroke-dasharray:none;stroke-linecap:butt;marker-start:none;stroke-linejoin:bevel;fill:#99d8c9">
   </path>
   <path d="M 50.76598,101.05 L 51.83398,101.333 L 50.94198,104.628 L 50.92398,105.061 L 49.72098,109.415 L 49.34698,110.6 L 47.75098,110.158 L 45.78598,109.546 L 44.41598,109.274 L 42.86998,109.054 L 42.03598,109.009 L 41.10798,109.041 L 39.86398,108.958 L 39.53398,108.87 L 38.60098,108.572 L 37.98898,108.157 L 35.72098,107.85 L 34.63998,107.837 L 33.28798,107.868 L 32.45798,107.964 L 32.59798,107.504 L 33.76998,106.553 L 35.31098,105.841 L 36.96998,103.749 L 39.55698,100.603 L 39.61998,100.594 L 39.97598,100.464 L 41.06298,99.499 L 41.15298,99.369 L 41.21998,99.256 L 41.35998,98.746 L 41.33298,98.624 L 41.17598,98.453 L 40.98598,98.318 L 42.93298,98.841 L 45.60598,99.616 L 50.76598,101.05" data-info="&lt;div&gt;206 - Shasta, CA&lt;/div&gt;" data-info2="&lt;div&gt;18 - Shasta, CA&lt;/div&gt;" id="06089" style="font-size:12px;fill-rule:nonzero;stroke:#FFFFFF;stroke-opacity:1;stroke-width:0.1;stroke-miterlimit:4;stroke-dasharray:none;stroke-linecap:butt;marker-start:none;stroke-linejoin:bevel;fill:#66c2a4">
   </path>
   <path d="M 64.26498,104.633 L 63.23698,108.635 L 62.07898,113.246 L 61.49798,115.494 L 61.31298,116.22 L 61.30798,116.233 L 60.67698,118.632 L 59.70398,122.282 L 59.50598,123.017 L 58.06798,122.842 L 58.60398,122.202 L 59.08598,120.776 L 59.18098,120.412 L 59.18998,120.019 L 58.70798,117.929 L 58.42798,117.563 L 56.23798,114.994 L 54.57898,113.751 L 54.21798,113.656 L 53.87198,113.76 L 52.89398,114.544 L 52.81198,114.845 L 52.60998,114.891 L 52.25398,114.796 L 51.32998,113.972 L 51.21298,113.651 L 51.85698,111.266 L 49.34698,110.6 L 49.72098,109.415 L 50.92398,105.061 L 50.94198,104.628 L 51.83398,101.333 L 64.26498,104.633" data-info="&lt;div&gt;296 - Lassen, CA&lt;/div&gt;" data-info2="&lt;div&gt;19 - Lassen, CA&lt;/div&gt;" id="06035" style="font-size:12px;fill-rule:nonzero;stroke:#FFFFFF;stroke-opacity:1;stroke-width:0.1;stroke-miterlimit:4;stroke-dasharray:none;stroke-linecap:butt;marker-start:none;stroke-linejoin:bevel;fill:#66c2a4">
   </path>
   <path d="M 53.55198,90.859 L 58.77098,92.319 L 60.48398,92.779 L 60.49698,92.784 L 63.87698,93.681 L 64.24198,93.775 L 66.90198,94.447 L 64.26498,104.633 L 51.83398,101.333 L 50.76598,101.05 L 51.60898,97.971 L 52.78098,93.617 L 52.73598,93.59 L 52.72198,93.55 L 53.21398,91.738 L 53.30298,91.427 L 53.55198,90.859" data-info="&lt;div&gt;134 - Modoc, CA&lt;/div&gt;" data-info2="&lt;div&gt;15 - Modoc, CA&lt;/div&gt;" id="06049" style="font-size:12px;fill-rule:nonzero;stroke:#FFFFFF;stroke-opacity:1;stroke-width:0.1;stroke-miterlimit:4;stroke-dasharray:none;stroke-linecap:butt;marker-start:none;stroke-linejoin:bevel;fill:#66c2a4">
   </path>
  </svg>